<?xml version="1.0" standalone="no"?><!DOCTYPE svg PUBLIC "-//W3C//DTD SVG 1.1//EN" "http://www.w3.org/Graphics/SVG/1.1/DTD/svg11.dtd"><svg t="1483612246419" class="icon" style="" viewBox="0 0 1024 1024" version="1.1" xmlns="http://www.w3.org/2000/svg" p-id="1488" xmlns:xlink="http://www.w3.org/1999/xlink" width="64" height="64"><defs><style type="text/css"></style></defs><path d="M760.016384 450.88128 541.325824 450.88128 541.325824 616.25728 882.714624 616.25728 882.714624 673.87264 541.325824 673.87264 541.325824 920.30336 985.109504 920.30336 985.109504 977.91872 40.961024 977.91872 40.961024 920.30336 483.710464 920.30336 483.710464 673.87264 143.386624 673.87264 143.386624 616.25728 483.710464 616.25728 483.710464 450.88128 266.084864 450.88128 266.084864 393.2992 760.016384 393.2992 760.016384 450.88128ZM943.499264 444.47872 512.518144 198.048 82.571264 444.47872 53.763584 394.36416 483.710464 146.8352 483.710464 46.5728 541.325824 46.5728 541.325824 146.8352C684.263424 228.98816 829.366784 313.27616 972.306944 394.36416L943.499264 444.47872ZM673.593344 827.48032 774.953984 727.22048 815.496704 766.66496 714.138624 868.02304 673.593344 827.48032ZM311.962624 868.02304 210.604544 766.66496 251.147264 727.22048 352.477184 827.48032 311.962624 868.02304Z" p-id="1489" fill="#a9ea13"></path><path d="M512.515072 195.0976 942.551552 440.99072 968.804352 395.32032C871.101952 339.88096 770.993152 282.1504 674.153472 226.304 629.330432 200.45312 584.584192 174.65088 540.050432 149.05344L538.765312 148.31616 538.765312 49.13152 486.269952 49.13152 486.269952 148.3136 57.257472 395.30752 83.515392 440.98816 512.515072 195.0976ZM81.626112 447.97184 50.268672 393.42336 481.149952 145.35424 481.149952 44.01152 543.885312 44.01152 543.885312 145.35168C587.999232 170.70848 632.315392 196.26496 676.710912 221.87008 774.282752 278.13632 875.174912 336.32 973.571072 392.13824L975.811072 393.408 944.448512 447.96928 512.520192 200.9984 81.626112 447.97184ZM677.225472 827.48928 714.138112 864.40448 811.853312 766.68928 774.968832 730.80576 677.225472 827.48928ZM714.138112 871.64416 669.965312 827.47136 774.938112 723.6352 819.141632 766.64064 714.138112 871.64416ZM214.249472 766.68928 311.962112 864.40448 348.846592 827.48928 251.131392 730.80832 214.249472 766.68928ZM311.964672 871.64416 206.958592 766.64064 251.162112 723.63264 356.104192 827.47136 311.964672 871.64416ZM43.520512 975.36 982.548992 975.36 982.548992 922.86464 538.765312 922.86464 538.765312 671.31136 880.154112 671.31136 880.154112 618.81856 538.765312 618.81856 538.765312 448.32256 757.458432 448.32256 757.458432 395.85792 268.644352 395.85792 268.644352 448.32256 486.269952 448.32256 486.269952 618.81856 145.946112 618.81856 145.946112 671.31136 486.269952 671.31136 486.269952 922.86464 43.520512 922.86464 43.520512 975.36ZM987.668992 980.48 38.400512 980.48 38.400512 917.74464 481.149952 917.74464 481.149952 676.43136 140.826112 676.43136 140.826112 613.69856 481.149952 613.69856 481.149952 453.44256 263.524352 453.44256 263.524352 390.73792 762.578432 390.73792 762.578432 453.44256 543.885312 453.44256 543.885312 613.69856 885.274112 613.69856 885.274112 676.43136 543.885312 676.43136 543.885312 917.74464 987.668992 917.74464 987.668992 980.48Z" p-id="1490" fill="#a9ea13"></path></svg>